# xmcd
# 
# Track frame offsets:
#     150
#     11835
#     24120
#     38542
#     51152
#     61602
#     72650
#     86392
#     99047
#     112517
#     126660
#     140035
#     153152
#     165267
#     180477
#     194962
#     208337
#     223290
#     236130
#     249967
#     265250
#     280127
#     292735
#     305655
#     319552
#     333260
# 
# Disc length: 4606
# 
# Revision: 17
# Processed by: cddbd v1.5.2PL0 Copyright (c) Steve Scherf et al.
# Submitted via: fre:ac v1.0.31
# 
DISCID=6e11fc1a
DTITLE=Muddy Waters - The Anthology Disc 1
DYEAR=2001
DGENRE=Blues
TTITLE0=Gypsy Woman
TTITLE1=I Can't Be Satisfied
TTITLE2=I Feel Like Going Home
TTITLE3=Train Fare Home Blues
TTITLE4=Mean Red Spider
TTITLE5=Standin' Here Tremblin'
TTITLE6=You Gonna Need My Help
TTITLE7=Little Geneva
TTITLE8=Rollin' and Tumblin', Part One
TTITLE9=Rollin' Stone
TTITLE10=Walkin' Blues
TTITLE11=Louisiana Blues
TTITLE12=Long Distance Call
TTITLE13=Honey Bee
TTITLE14=Country Boy
TTITLE15=She Moves Me
TTITLE16=Still A Fool
TTITLE17=Stuff You Gotta Watch
TTITLE18=Who's Gonna Be Your Sweet Man When I'm Gone
TTITLE19=Standin' Around Cryin
TTITLE20=Baby Please Don't Go
TTITLE21=(I'm Your) Hoochie Coochie Man
TTITLE22=I Just Want To Make Love To You
TTITLE23=I'm Ready
TTITLE24=Young Fashioned Ways
TTITLE25=I Want To Be Loved
EXTD=YEAR: 2007
EXTT0=\nYEAR: 1947
EXTT1=\nYEAR: 1948
EXTT2=\nYEAR: 1948
EXTT3=\nYEAR: 1948
EXTT4=\nYEAR: 1948
EXTT5=\nYEAR: 1948
EXTT6=\nYEAR: 1949
EXTT7=\nYEAR: 1949
EXTT8=\nYEAR: 1950
EXTT9=\nYEAR: 1950
EXTT10=\nYEAR: 1950
EXTT11=\nYEAR: 1950
EXTT12=\nYEAR: 1951
EXTT13=\nYEAR: 1951
EXTT14=\nYEAR: 1951
EXTT15=\nYEAR: 1951
EXTT16=\nYEAR: 1951
EXTT17=\nYEAR: 1951
EXTT18=\nYEAR: 1952
EXTT19=\nYEAR: 1952
EXTT20=\nYEAR: 1953
EXTT21=\nYEAR: 1954
EXTT22=\nYEAR: 1954
EXTT23=\nYEAR: 1954
EXTT24=\nYEAR: 1955
EXTT25=\nYEAR: 1955
PLAYORDER=
